<svg width="114" height="35" viewBox="0 0 114 35" fill="none" xmlns="http://www.w3.org/2000/svg">
<g clip-path="url(#clip0_2094_243)">
<path d="M106.139 10.1016C106.338 10.0405 106.542 10.0551 106.749 10.1455C106.955 10.2108 107.142 10.3663 107.307 10.6113C107.603 10.9508 107.734 11.2483 107.696 11.5039C107.659 11.7595 107.457 12.2649 107.091 13.0195C107.004 13.303 106.893 13.6135 106.759 13.9502C106.623 14.2615 106.557 14.4681 106.562 14.5693C106.54 14.6212 106.498 14.801 106.438 15.1084C106.402 15.3893 106.354 15.6591 106.291 15.916C106.228 16.1727 106.159 16.3027 106.083 16.3066C105.987 16.4131 105.888 16.7102 105.787 17.1973C105.684 17.6593 105.598 18.1843 105.527 18.7715C105.455 19.3334 105.418 19.8303 105.415 20.2617C105.411 20.6674 105.459 20.8674 105.561 20.8623C106.345 20.8212 107.138 20.4751 107.941 19.8242C108.711 19.2179 109.467 18.3703 110.212 17.2832C110.303 16.4991 110.426 15.7526 110.583 15.0439C110.874 13.811 111.106 12.4414 111.281 10.9355C111.414 10.5735 111.518 10.3651 111.591 10.3105C111.663 10.2307 111.825 10.1842 112.078 10.1709C112.356 10.1563 112.56 10.1709 112.689 10.2148C112.842 10.2323 113.014 10.3757 113.206 10.6445C113.484 11.1119 113.603 11.6763 113.562 12.3379C113.544 12.973 113.384 13.5402 113.08 14.0381C112.846 14.4055 112.647 14.9737 112.484 15.7432C112.346 16.486 112.217 17.4187 112.099 18.541C112.001 19.1041 111.896 19.7693 111.784 20.5361C111.696 21.2764 111.6 22.1067 111.496 23.0254C111.408 23.2837 111.29 23.6834 111.141 24.2236C110.99 24.7386 110.897 25.1489 110.862 25.4551C110.842 25.5576 110.777 25.7641 110.666 26.0742C110.555 26.3843 110.445 26.682 110.333 26.9668C110.223 27.2768 110.144 27.484 110.099 27.5879C109.219 29.6888 108.176 31.3166 106.968 32.4707C105.76 33.6246 104.413 34.2912 102.926 34.4707C102.375 34.6011 101.995 34.6336 101.789 34.5684C101.583 34.5031 101.298 34.3918 100.935 34.2334C100.646 34.0457 100.423 33.9048 100.266 33.8115C100.109 33.7183 100.027 33.6207 100.021 33.5195C100.018 33.4437 100.039 33.3537 100.084 33.25C100.131 33.1716 100.215 33.0911 100.337 33.0088C100.486 32.9502 100.687 32.9146 100.94 32.9014C101.123 32.9932 101.417 33.028 101.821 33.0068C102.251 32.9843 102.514 32.92 102.61 32.8135C102.614 32.8108 102.723 32.7284 102.939 32.5674C103.186 32.4277 103.51 32.31 103.91 32.2129C104.674 31.7923 105.345 31.2748 105.922 30.6611C106.498 30.0475 107.04 29.258 107.548 28.293C107.757 27.9269 107.976 27.4968 108.204 27.0029C108.433 26.5343 108.586 26.0691 108.663 25.6084C108.839 25.0918 109.031 24.3967 109.239 23.5234C109.472 22.6488 109.669 21.7887 109.827 20.9434C109.852 20.8062 109.873 20.6741 109.894 20.5479C109.722 20.6856 109.561 20.8365 109.411 21.0029C109.341 21.1081 109.171 21.2567 108.902 21.4482C108.633 21.6399 108.363 21.819 108.093 21.9854C107.846 22.1251 107.685 22.1972 107.609 22.2012C107.606 22.2023 107.569 22.2171 107.498 22.2451C107.448 22.2478 107.424 22.2995 107.43 22.4004C107.432 22.451 107.273 22.5614 106.952 22.7305C106.63 22.8742 106.294 23.0063 105.945 23.126C105.597 23.2456 105.359 23.3088 105.232 23.3154C104.954 23.3299 104.655 23.1929 104.336 22.9053C104.042 22.6163 103.839 22.3856 103.729 22.2139C103.614 21.9664 103.475 21.7323 103.312 21.5127C103.148 21.2931 103.02 21.0209 102.927 20.6963C102.859 20.3701 102.862 19.9635 102.938 19.4775C103.022 19.1434 103.137 18.668 103.282 18.0518C103.451 17.4087 103.631 16.7143 103.82 15.9688C104.035 15.222 104.25 14.488 104.466 13.7666C104.706 13.0184 104.925 12.3595 105.123 11.791C105.32 11.1972 105.501 10.7691 105.665 10.5068C105.806 10.2966 105.964 10.1614 106.139 10.1016ZM14.1953 4.15137C14.4989 4.13546 14.8462 4.21887 15.2363 4.40137C15.6515 4.58251 16.0319 4.8291 16.3779 5.14062C16.724 5.45227 16.9836 5.79352 17.1553 6.16504C17.2923 6.3608 17.3648 6.78837 17.374 7.44727C17.3832 8.10624 17.3745 8.90588 17.3477 9.8457C17.3208 10.7857 17.2848 11.7906 17.2393 12.8584C17.2177 13.8995 17.1683 15.1322 17.0908 16.5566C17.0133 17.9813 16.9391 19.4694 16.8682 21.0205C16.8225 22.5704 16.7992 24.0686 16.7988 25.5146C16.7972 26.9352 16.8626 28.1749 16.9941 29.2334C17.0313 29.4595 17.042 29.6744 17.0273 29.8779C17.0127 30.0816 17.009 30.2475 17.0156 30.374C16.8718 30.5336 16.622 30.6103 16.2666 30.6035C15.9378 30.6207 15.6053 30.5612 15.2686 30.4268C14.957 30.2909 14.7696 30.1108 14.707 29.8857C14.6272 29.8138 14.571 29.715 14.5391 29.5898C14.5311 29.4379 14.5279 29.1339 14.5293 28.6777C14.5307 28.2211 14.5186 27.4986 14.4922 26.5107L14.3594 20.3525L13.8682 20.417C13.6405 20.4289 13.2118 20.4768 12.582 20.5605C11.9523 20.6443 11.2732 20.7559 10.5449 20.8955C9.81534 21.0098 9.13686 21.1342 8.50977 21.2686C7.90695 21.3762 7.49334 21.4737 7.26953 21.5615C7.04186 21.5735 6.77094 21.7398 6.45801 22.0605C6.17034 22.38 5.90055 22.788 5.64746 23.2832C5.56483 23.6426 5.39468 24.0319 5.1377 24.4512C4.9046 24.8439 4.79122 25.104 4.79785 25.2305C4.62751 25.3662 4.48337 25.5254 4.36621 25.709C4.2743 25.8914 4.22852 25.9834 4.22852 25.9834C4.23622 26.1355 4.12914 26.5218 3.9082 27.1416C3.71103 27.7353 3.45433 28.4081 3.13867 29.1602C2.82164 29.887 2.50014 30.5254 2.17383 31.0752L1.44043 32.3311L0.80957 31.9082C0.341145 31.6792 0.0734661 31.4141 0.00683594 31.1133C-0.0343729 30.811 0.115374 30.2701 0.455078 29.4912C0.794784 28.7124 1.32772 27.5043 2.05371 25.8682C2.6011 24.6981 3.00987 23.7889 3.28027 23.1406C3.57454 22.466 3.7649 21.9868 3.85156 21.7031C3.96347 21.4182 4.01765 21.237 4.01367 21.1611C3.95127 20.9363 3.96701 20.7577 4.06152 20.626C4.15477 20.4689 4.31283 20.3338 4.53516 20.2207C4.65503 20.0876 4.84547 19.8492 5.10645 19.5059C5.39275 19.1611 5.65079 18.7547 5.87988 18.2861C6.07972 17.7429 6.31641 17.1848 6.59082 16.6123C6.86522 16.0399 7.2341 15.3232 7.69629 14.4619C8.15718 13.5752 8.75618 12.4271 9.49414 11.0186C9.95363 10.1068 10.4631 9.1797 11.0225 8.2373C11.5806 7.26944 12.1781 6.31178 12.8135 5.36523C13.073 4.99672 13.3114 4.70546 13.5283 4.49121C13.744 4.25163 13.9663 4.13805 14.1953 4.15137ZM102.717 0.00683594C103.197 -0.0183477 103.517 0.0279517 103.676 0.146484C103.858 0.238396 104.121 0.42779 104.466 0.713867C104.84 1.07479 105.056 1.31756 105.113 1.44141C105.17 1.56524 105.208 1.80423 105.227 2.1582C105.193 2.48974 105.077 2.9275 104.877 3.4707C104.701 3.98713 104.498 4.46693 104.268 4.91016C104.061 5.32649 103.883 5.55139 103.732 5.58496C103.434 5.70207 103.205 5.68876 103.045 5.54492C102.909 5.3745 102.831 5.0998 102.812 4.7207C102.802 4.54369 102.743 4.38179 102.634 4.23535C102.55 4.06596 102.508 3.97922 102.506 3.97559C102.502 3.89969 102.508 3.77217 102.524 3.59375C102.564 3.38881 102.63 3.19501 102.722 3.0127C102.835 2.75321 102.851 2.56198 102.769 2.43945C102.711 2.31561 102.545 2.29917 102.271 2.38965C102.197 2.44444 102.003 2.6071 101.688 2.87695C101.372 3.14706 101.033 3.4561 100.671 3.80469C100.333 4.12683 100.031 4.43467 99.7676 4.72754C99.5039 5.02039 99.374 5.20536 99.3779 5.28125C99.3747 5.28955 99.33 5.40571 99.2441 5.62988C99.1535 5.83758 98.9778 6.11357 98.7168 6.45703C98.553 6.71929 98.4022 6.98125 98.2637 7.24219C98.1493 7.47605 98.0932 7.61815 98.0957 7.66895C98.101 7.77014 98.0939 7.88488 98.0752 8.0127C98.0805 8.11389 98.0201 8.16818 97.8936 8.1748C97.8916 8.18171 97.8598 8.29727 97.7979 8.52148C97.7339 8.75315 97.6096 9.05221 97.4258 9.41699C97.3379 9.67517 97.225 9.9473 97.0879 10.2334C96.9494 10.4942 96.8322 10.6777 96.7363 10.7842L96.7744 10.7822C96.7744 10.7822 96.7196 10.9506 96.6104 11.2861C96.5251 11.5948 96.4291 11.9295 96.3213 12.29C96.2123 12.6246 96.1588 12.8179 96.1611 12.8691C96.1664 12.9703 96.346 13.0117 96.7002 12.9932C97.0797 12.9733 97.5205 12.913 98.0225 12.8105C98.5231 12.6828 98.9736 12.557 99.373 12.4346C99.7216 12.3149 99.9595 12.2517 100.086 12.2451C100.213 12.2386 100.468 12.2762 100.853 12.3574C101.062 12.4733 101.236 12.6541 101.376 12.9004C101.54 13.12 101.652 13.3425 101.715 13.5674C101.801 13.7658 101.81 13.9183 101.739 14.0234C101.719 14.126 101.448 14.2795 100.926 14.4844C100.404 14.6892 99.8803 14.8563 99.3545 14.9854C98.9044 15.1104 98.3533 15.2531 97.7021 15.4141C97.051 15.575 96.4753 15.7199 95.9746 15.8477C95.5001 15.9738 95.2645 16.0745 95.2676 16.1504C95.1664 16.1557 95.081 16.224 95.0117 16.3545C94.9412 16.4596 94.9082 16.5501 94.9121 16.626C94.9307 16.98 94.8936 17.2483 94.8018 17.4307C94.7591 17.5851 94.6866 17.8936 94.584 18.3555C94.4814 18.8175 94.3687 19.331 94.2461 19.8955C94.1488 20.4587 94.0617 20.971 93.9844 21.4316C93.9324 21.8905 93.9101 22.1958 93.918 22.3477C93.7755 22.5327 93.6992 22.7653 93.6885 23.0449C93.6764 23.2992 93.6749 23.5281 93.6855 23.7305C93.5951 23.938 93.5424 24.1313 93.5264 24.3096C93.5091 24.4624 93.5025 24.5893 93.5078 24.6904C93.5091 24.7157 93.5117 24.7669 93.5156 24.8428C93.5196 24.9186 93.5115 24.9952 93.4902 25.0723C93.4782 25.3265 93.4571 25.6572 93.4277 26.0645C93.425 26.4959 93.4339 26.9146 93.4551 27.3193L93.3994 28.4258C93.3913 28.7558 93.3678 29.0363 93.3291 29.2666C93.2917 29.522 93.2135 29.7166 93.0938 29.8496C92.9474 29.9587 92.7687 29.9426 92.5586 29.8018C92.3736 29.6592 92.0932 29.394 91.7178 29.0078C91.5301 28.8147 91.4043 28.6059 91.3418 28.3809C91.2793 28.1558 91.2698 27.725 91.3125 27.0889C91.3991 26.8054 91.4361 26.5371 91.4229 26.2842C91.4349 26.0301 91.4379 25.8522 91.4326 25.751C91.4247 25.5992 91.4445 25.2429 91.4912 24.6826C91.5632 24.1208 91.6338 23.5333 91.7031 22.9209C91.7712 22.2832 91.8339 21.7977 91.8926 21.4648C91.8913 21.4396 91.901 21.3757 91.9209 21.2734C91.9409 21.1709 91.9611 21.0802 91.9824 21.0029C92.0211 20.7727 92.069 20.4661 92.125 20.083C92.2063 19.6983 92.2707 19.2255 92.3174 18.665C92.4866 18.022 92.6182 17.3931 92.7129 16.7793C92.8315 16.1392 92.8849 15.7053 92.873 15.4775C92.8492 15.0222 93.009 14.6838 93.3525 14.4629C93.3712 14.3351 93.4376 14.1414 93.5508 13.8818C93.6627 13.5969 93.7645 13.3631 93.8564 13.1807C94.2868 11.7122 94.6446 10.5513 94.9297 9.69922C95.2134 8.82205 95.5159 8.05812 95.8369 7.40723C95.9662 6.9692 96.1075 6.51739 96.2607 6.05273C96.4391 5.58714 96.6225 5.22248 96.8115 4.95898C96.9208 4.62347 97.1903 4.18999 97.6191 3.66016C98.0466 3.1052 98.5008 2.57442 98.9814 2.06738C99.4607 1.53506 99.8455 1.13413 100.136 0.865234C100.678 0.557783 101.111 0.344993 101.435 0.226562C101.758 0.108132 102.186 0.0346787 102.717 0.00683594ZM41.5732 4.16211C41.8515 4.14752 42.1103 4.2363 42.3486 4.42676C42.5868 4.6172 42.7788 4.88598 42.9238 5.2334C43.0369 5.45572 43.0854 5.65659 43.0693 5.83496C43.0771 5.98671 43.012 6.20533 42.875 6.49121C42.578 7.11554 42.2285 7.94581 41.8262 8.98145C41.4478 9.99063 41.062 11.1025 40.6689 12.3154C40.3012 13.5269 39.9581 14.7247 39.6396 15.9082C39.3212 17.0916 39.0591 18.1327 38.8525 19.0312C38.7299 19.5958 38.6273 20.3119 38.5459 21.1787C38.4898 22.044 38.4481 22.9341 38.4199 23.8486C38.3904 24.738 38.3817 25.5374 38.3936 26.2471C38.4294 26.9301 38.4779 27.3715 38.5391 27.5713C38.7174 28.0693 38.8001 28.4459 38.7881 28.7002C38.8013 28.953 38.7465 29.1206 38.624 29.2031C38.5029 29.3109 38.3041 29.3849 38.0273 29.4248C37.7025 29.5179 37.4215 29.4815 37.1846 29.3164C36.9742 29.1752 36.8105 28.9555 36.6934 28.6572C36.4605 28.086 36.2747 27.4619 36.1377 26.7842C36.0247 26.0799 35.9802 25.4606 36.0029 24.9268L36.0371 24.126L34.6182 25.3799C33.7979 26.1838 32.9914 26.7713 32.1992 27.1426C31.4325 27.5124 30.7457 27.7132 30.1387 27.7451C29.8577 27.7091 29.5733 27.6226 29.2871 27.4854C29.0011 27.3482 28.7385 27.1716 28.499 26.9561C28.2847 26.739 28.1075 26.5071 27.9678 26.2607C27.7975 25.9146 27.7215 25.4368 27.7402 24.8271C27.7843 24.2161 27.9013 23.5502 28.0918 22.8301C28.3063 22.0833 28.5733 21.3588 28.8916 20.6572C29.234 19.929 29.6312 19.286 30.084 18.7295C30.8525 17.4209 31.7105 16.6021 32.6572 16.2734C33.604 15.9448 34.5602 16.0345 35.5254 16.542C36.1977 16.7858 36.6093 16.8907 36.7598 16.8574C36.9354 16.8225 37.0717 16.5237 37.1689 15.9609C37.2489 15.5511 37.3292 15.1413 37.4092 14.7314C37.4878 14.2961 37.6219 13.7174 37.8125 12.9971C38.3441 11.0415 38.8097 9.50812 39.208 8.39648C39.6316 7.28352 40.0116 6.31183 40.3486 5.48242C40.5964 4.88597 40.8061 4.51956 40.9766 4.38379C41.1708 4.22163 41.3698 4.14756 41.5732 4.16211ZM23.3242 17.9043C23.6224 17.7873 23.8498 17.7759 24.0068 17.8691C24.1626 17.9371 24.3782 18.1661 24.6523 18.5576C24.8653 18.7494 24.9571 19.0497 24.9277 19.457C24.8983 19.8643 24.76 20.3786 24.5137 21C24.4231 21.2077 24.3116 21.5061 24.1797 21.8936C24.0731 22.2795 24.0024 22.6255 23.9678 22.9316C23.8772 23.1393 23.7657 23.4368 23.6338 23.8242C23.5259 24.185 23.4306 24.533 23.3467 24.8672C23.3027 24.9963 23.2619 25.1888 23.2246 25.4443C23.186 25.6746 23.1355 25.9307 23.0742 26.2129C23.0116 26.4698 22.9225 26.7031 22.8066 26.9121C22.6333 27.9612 22.4499 28.5799 22.2568 28.7676C22.089 28.9535 21.7773 28.8173 21.3223 28.3594C21.1093 28.1676 20.9442 27.9222 20.8271 27.624C20.7354 27.3246 20.6938 27.0225 20.7031 26.7178C20.7125 26.4131 20.763 26.1568 20.8535 25.9492C20.8429 25.7468 20.86 25.5931 20.9053 25.4893C20.9745 25.3588 20.9945 25.2434 20.9639 25.1436C20.9334 25.0436 20.9491 24.8651 21.0117 24.6084C21.0743 24.3517 21.1373 24.1075 21.2012 23.876C21.357 23.462 21.5221 22.9713 21.6953 22.4043C21.8672 21.8118 22.0269 21.2319 22.1748 20.666C22.3227 20.1003 22.4494 19.6115 22.5547 19.2002C22.6599 18.7892 22.7222 18.5323 22.7422 18.4297C22.7263 18.1261 22.9208 17.9508 23.3242 17.9043ZM81.625 3.12891C81.7515 3.12228 82.0116 3.23565 82.4043 3.46875C82.6385 3.5833 82.8488 3.72481 83.0352 3.89258C83.2214 4.06028 83.345 4.24378 83.4062 4.44336C83.4661 4.61768 83.3998 4.79877 83.207 4.98633C83.1617 5.09017 83.0954 5.28477 83.0088 5.56836C82.921 5.82636 82.8558 6.04501 82.8145 6.22461C82.6719 6.40966 82.4975 6.71123 82.291 7.12793C82.1086 7.51787 81.9902 7.91757 81.9355 8.32617C81.7557 8.76673 81.5862 9.16885 81.4277 9.53223C81.2679 9.8702 81.1373 10.0416 81.0361 10.0469C81.1 10.2972 81.2588 10.4165 81.5117 10.4033C81.7633 10.3648 82.1794 10.3175 82.7598 10.2617C83.2378 10.1859 83.5648 10.1175 83.7393 10.0576C83.9375 9.97136 84.1664 9.98457 84.4258 10.0977C84.5616 10.2681 84.6729 10.4657 84.7607 10.6895C84.8485 10.913 84.8729 11.1271 84.833 11.332C84.817 11.5104 84.7219 11.6424 84.5488 11.7275C84.4222 11.7344 84.1608 11.8244 83.7646 11.9971C83.3918 12.1435 82.9145 12.245 82.334 12.3008L80.333 12.5957L79.7559 13.9199C79.596 14.258 79.4596 14.5696 79.3477 14.8545C79.2347 15.1134 79.1544 15.2697 79.1064 15.3232C79.1144 15.475 79.0372 15.7076 78.876 16.0205C78.7401 16.332 78.5931 16.6698 78.4346 17.0332C78.3053 17.4712 78.1486 17.8726 77.9648 18.2373C77.8101 18.5921 77.7312 18.7738 77.7275 18.7822C77.6263 18.7875 77.579 18.8668 77.5869 19.0186C77.7292 19.3154 77.7032 19.5447 77.5088 19.707C77.3864 19.7895 77.2787 19.9095 77.1855 20.0664C77.1163 20.1969 77.082 20.2627 77.082 20.2627C77.1882 20.3585 77.2075 20.4841 77.1396 20.6396C77.097 20.794 77.0293 20.9622 76.9375 21.1445C76.9481 21.3468 76.9005 21.6414 76.7939 22.0273C76.7126 22.4121 76.6171 22.7729 76.5078 23.1084C76.5569 23.5619 76.598 23.8512 76.6299 23.9766C76.6618 24.1017 76.7274 24.1497 76.8271 24.1191C76.955 24.1378 77.0691 24.1312 77.1689 24.1006C77.2687 24.07 77.3696 24.0522 77.4707 24.0469C77.8164 23.8774 77.6727 24.773 77.04 26.7334C76.6685 27.387 76.4145 27.8573 76.2773 28.1436C76.1416 28.4547 76.0102 28.6133 75.8838 28.6201C75.0423 28.5374 74.4561 28.2508 74.126 27.7607C73.8227 27.2946 73.7206 26.5518 73.8193 25.5322C73.9459 25.0438 74.0111 24.6092 74.0166 24.2285C74.046 23.8213 74.1468 23.5618 74.3184 23.4512C74.3184 23.4512 74.3293 23.4122 74.3506 23.335C74.3971 23.2565 74.3806 23.1812 74.3008 23.1094C74.2836 22.7805 74.3742 22.3192 74.5713 21.7256C74.6139 21.5712 74.6672 21.3908 74.7324 21.1846C74.8198 20.9566 74.8643 20.8399 74.8662 20.835C74.7293 20.6393 74.7211 20.4749 74.8408 20.3418C74.9606 20.2088 75.081 20.0882 75.2021 19.9805C75.3473 19.846 75.3532 19.7057 75.2188 19.5605C75.1629 19.462 75.2137 19.2313 75.3721 18.8682C75.5293 18.4794 75.7115 18.0759 75.918 17.6592C76.1242 17.243 76.2592 16.9191 76.3232 16.6875C76.3206 16.6369 76.3748 16.4557 76.4854 16.1455C76.5959 15.8354 76.729 15.4734 76.8848 15.0596C77.0406 14.6455 77.1867 14.2695 77.3213 13.9326C77.4809 13.595 77.5836 13.3744 77.6289 13.2705C77.8752 13.1308 77.7685 13.0472 77.3105 13.0205C76.8527 12.9938 76.3716 13.0058 75.8672 13.0576C75.0817 13.0734 74.4472 13.0693 73.9639 13.0439C73.506 13.0172 73.1204 12.9228 72.8076 12.7617C72.4855 12.4235 72.3578 12.1763 72.4258 12.0205C72.5177 11.8381 72.8166 11.7208 73.3213 11.6689C73.6486 11.6264 73.9011 11.6011 74.0781 11.5918C74.2805 11.5812 74.5329 11.5549 74.835 11.5137C75.1612 11.4458 75.6638 11.3558 76.3428 11.2441L78.2705 10.9912L78.3506 10.3398C78.5356 10.0006 78.6847 9.7009 78.7979 9.44141C78.935 9.15523 79.0472 8.87044 79.1338 8.58691C79.2204 8.30334 79.2807 8.00836 79.3154 7.70215C79.3154 7.70215 79.4186 7.49377 79.625 7.07715C79.8301 6.63514 79.9459 6.18459 79.9727 5.72656C80.2496 5.20485 80.4918 4.73594 80.6982 4.31934C80.9034 3.87733 81.0289 3.60385 81.0742 3.5C81.3402 3.25812 81.5238 3.1344 81.625 3.12891ZM49.3008 13.2324C49.5791 13.2178 49.8728 13.2536 50.1816 13.3389C50.489 13.3988 50.7465 13.4739 50.9541 13.5645C51.3935 13.719 51.7337 13.9172 51.9746 14.1582C52.2156 14.3993 52.4386 14.7807 52.6436 15.3027C52.7446 15.7793 52.8009 16.1189 52.8115 16.3213C52.8221 16.5237 52.7742 16.831 52.6689 17.2422C52.4131 18.1686 52.0623 18.9734 51.6162 19.6562C51.17 20.3392 50.5542 20.93 49.7686 21.4277C49.5729 21.5648 49.3377 21.6781 49.0635 21.7686C48.8132 21.8324 48.5488 21.8721 48.2705 21.8867C47.7645 21.9132 47.2663 21.8501 46.7764 21.6982C46.3104 21.5197 45.928 21.2477 45.6299 20.8828L45.3486 20.5938L45.251 20.9033C45.0338 21.5995 44.8644 22.2423 44.7432 22.832C44.6472 23.4203 44.6116 23.955 44.6367 24.4355C44.6526 24.7391 44.6936 25.0291 44.7588 25.3047C44.8492 25.5789 44.9626 25.814 45.0996 26.0098C45.2088 26.1563 45.3797 26.2612 45.6113 26.3252C45.8669 26.3625 46.1339 26.374 46.4121 26.3594C46.5891 26.3501 46.7663 26.3413 46.9434 26.332C47.1444 26.2961 47.3318 26.2356 47.5049 26.1504C47.9267 25.9762 48.2593 25.7937 48.5029 25.6035C48.7719 25.4118 49.0409 25.2072 49.3086 24.9902L49.4561 24.9062L49.418 24.9082C49.7136 24.7405 49.9717 24.5749 50.1914 24.4111C50.4298 24.2505 50.5523 24.1683 50.5586 24.1641C50.6598 24.1588 50.758 24.0898 50.8525 23.958C51.0496 23.8463 51.3044 23.8711 51.6172 24.0322C51.9553 24.1921 52.1319 24.4112 52.1465 24.6895C52.1278 24.8173 52.0246 25.0257 51.8369 25.3145C51.6478 25.578 51.4325 25.8303 51.1914 26.0713C50.9757 26.3109 50.7921 26.4472 50.6416 26.4805C50.6174 26.5072 50.5321 26.5629 50.3848 26.6465C50.2359 26.7049 50.1369 26.7603 50.0889 26.8135L50.127 26.8115C49.9153 27.1269 49.6954 27.2907 49.4678 27.3027L49.1641 27.3193C49.072 27.5017 48.7534 27.7208 48.209 27.9775C47.663 28.2091 47.124 28.3393 46.5928 28.3672C45.4799 28.4254 44.5469 28.0554 43.7949 27.2578C43.0417 26.4348 42.6445 25.3901 42.6035 24.124C42.6064 23.2106 42.7322 22.227 42.9814 21.1738C43.2546 20.0941 43.6324 19.0594 44.1133 18.0703C44.5928 17.056 45.1297 16.1651 45.7236 15.3984C46.3176 14.6318 46.9482 14.0786 47.6152 13.7393C47.8615 13.5996 48.1222 13.485 48.3965 13.3945C48.696 13.3028 48.9973 13.2483 49.3008 13.2324ZM58.7871 14.0293C58.8777 13.8216 59.0523 13.7617 59.3105 13.8496C59.5674 13.9123 59.7918 14.0778 59.9834 14.3467C60.3814 14.681 60.5942 15.1142 60.6221 15.6455C60.6752 16.1754 60.5829 16.8399 60.3457 17.6387C60.2539 17.8209 60.175 18.0027 60.1084 18.1836C60.0658 18.338 60.0225 18.4802 59.9785 18.6094C59.9333 18.7131 59.8992 18.8037 59.8779 18.8809C59.8554 18.9326 59.8447 18.959 59.8447 18.959C59.946 18.9535 60.1678 18.8271 60.5098 18.5811C60.8519 18.3349 61.2558 18.0602 61.7217 17.7568C62.0865 17.4587 62.4026 17.1885 62.6689 16.9463C62.9593 16.6774 63.2027 16.474 63.3984 16.3369C63.5927 16.1747 63.715 16.0926 63.7656 16.0898C63.8668 16.0845 63.9918 16.0399 64.1396 15.9561C64.2874 15.8722 64.409 15.7764 64.5049 15.6699C64.6007 15.5636 64.674 15.5095 64.7246 15.5068C64.7944 15.4794 64.8315 15.4646 64.8359 15.4629C64.8359 15.4629 64.8871 15.4594 64.9883 15.4541C65.0881 15.4235 65.1864 15.3554 65.2822 15.249C65.4766 15.0868 65.7397 15.0352 66.0723 15.0938C66.4036 15.1271 66.7141 15.2372 67.0029 15.4248C67.2917 15.6125 67.4437 15.8331 67.457 16.0859C67.4623 16.187 67.4915 16.2745 67.5459 16.3477C67.623 16.3934 67.6627 16.4172 67.6641 16.418C67.8665 16.4074 68.01 16.7169 68.0938 17.3467C68.2028 17.975 68.1708 18.5854 67.999 19.1777C68.0189 19.5572 67.9667 20.0174 67.8428 20.5566C67.7442 21.0943 67.657 21.606 67.5811 22.0918C67.4118 22.7347 67.3017 23.2986 67.251 23.7832C67.2003 24.2679 67.2085 24.6738 67.2764 25C67.3442 25.3262 67.4469 25.5875 67.584 25.7832C67.6943 25.9549 67.7053 26.1569 67.6162 26.3896C67.5256 26.5973 67.328 26.7097 67.0244 26.7256C66.7715 26.7387 66.4988 26.6132 66.2061 26.3496C65.9385 26.0846 65.6923 25.7554 65.4688 25.3613C65.2691 24.9405 65.1595 24.5396 65.1396 24.1602C65.1198 23.7806 65.1713 23.0676 65.2939 22.0215C65.442 20.9736 65.628 19.9111 65.8506 18.834C66.0184 18.1658 66.0616 17.7828 65.9805 17.6855C65.8993 17.5883 65.5648 17.7459 64.9775 18.1572C64.6328 18.3528 64.3262 18.5585 64.0586 18.7754C63.7896 18.9671 63.5596 19.1826 63.3691 19.4209C63.248 19.5287 63.0671 19.7036 62.8262 19.9443C62.5852 20.1851 62.331 20.414 62.0635 20.6309C61.7479 20.9011 61.3483 21.2769 60.8662 21.7588C60.3841 22.2407 59.902 22.7232 59.4199 23.2051C58.9633 23.6855 58.6147 24.059 58.375 24.3252C58.3297 24.4289 58.2582 24.5214 58.1611 24.6025C58.064 24.6836 57.9531 24.7406 57.8281 24.7725C57.7016 24.7791 57.5607 24.7604 57.4062 24.7178C57.1242 24.6564 56.8501 24.5061 56.584 24.2666C56.343 24.0255 56.2135 23.74 56.1963 23.4111C56.1832 23.1581 56.2622 22.7229 56.4326 22.1055C56.6018 21.4624 56.8279 20.6897 57.1104 19.7871C57.4181 18.8831 57.7731 17.9255 58.1768 16.915C58.246 16.7847 58.3015 16.6297 58.3428 16.4502C58.3828 16.2452 58.4095 16.0278 58.4229 15.7988C58.4615 15.5685 58.4754 15.3518 58.4648 15.1494C58.4582 15.0231 58.4648 14.8962 58.4834 14.7686C58.526 14.6141 58.5693 14.4719 58.6133 14.3428C58.6812 14.187 58.7392 14.0826 58.7871 14.0293ZM35.4326 18.4111C35.1185 18.2249 34.6972 18.1707 34.1689 18.249C33.6643 18.3008 33.1463 18.5947 32.6162 19.1299C32.0383 19.7182 31.4829 20.4956 30.9502 21.4619C30.4427 22.4271 30.0856 23.6007 29.8789 24.9814C29.8417 25.2369 29.9285 25.4351 30.1387 25.5762C30.349 25.7173 30.767 25.7084 31.3926 25.5488C31.7428 25.4544 32.0772 25.2968 32.3955 25.0771C32.739 24.8562 33.0932 24.5969 33.458 24.2988C34.1864 23.6773 34.8163 23.1113 35.3477 22.6016C35.879 22.0917 36.2076 21.3387 36.333 20.3428C36.3584 19.8598 36.2882 19.4832 36.1221 19.2129C35.9797 18.9159 35.7495 18.6482 35.4326 18.4111ZM87.5986 13.9648C87.7917 13.7773 88.0066 13.7537 88.2422 13.8936C88.4763 14.0082 88.6777 14.2261 88.8467 14.5469C89.0396 14.8412 89.1461 15.1782 89.166 15.5576C89.1752 15.7349 89.0728 16.1968 88.8584 16.9434C88.6425 17.665 88.3452 18.5309 87.9668 19.54C87.6138 20.5478 87.2107 21.5711 86.7578 22.6094C86.4169 23.3627 86.2009 23.8431 86.1104 24.0508C86.0184 24.2332 85.833 24.3321 85.5547 24.3467C85.4536 24.3519 85.326 24.3326 85.1719 24.29C85.0414 24.2208 84.9756 24.1865 84.9756 24.1865C84.9703 24.0853 84.9257 23.9603 84.8418 23.8125C84.7834 23.6636 84.7514 23.5386 84.7461 23.4375C84.5639 23.3456 84.4573 23.2492 84.4268 23.1494C84.395 23.0243 84.4224 22.8201 84.5088 22.5371C84.6473 22.2762 84.8289 21.8599 85.0527 21.29C85.2751 20.6951 85.5082 20.0617 85.752 19.3896C85.9944 18.692 86.2248 18.007 86.4434 17.3359C86.6618 16.6651 86.8478 16.0974 87.001 15.6328C87.1528 15.1431 87.2387 14.8468 87.2588 14.7441C87.2535 14.6429 87.2846 14.5142 87.3525 14.3584C87.4205 14.2026 87.5027 14.0713 87.5986 13.9648ZM49.832 15.0625C49.7137 15.0735 49.5327 15.1231 49.29 15.2119C49.0651 15.2746 48.7593 15.4812 48.3721 15.8311C47.9845 16.1812 47.5984 16.5691 47.2148 16.9951C46.8567 17.4197 46.5833 17.7766 46.3955 18.0654L45.9443 18.8877C46.1427 18.8012 46.3308 18.7534 46.5078 18.7441C46.7087 18.7083 46.8227 18.7154 46.8506 18.7646C46.8625 18.9922 46.9126 19.205 46.999 19.4033C47.1095 19.5751 47.2305 19.7082 47.3623 19.8027C47.5194 19.8959 47.6862 19.938 47.8633 19.9287C48.3184 19.9049 48.704 19.7583 49.0195 19.4883C49.3591 19.1914 49.6471 18.8714 49.8828 18.5293C50.3529 17.8199 50.6095 17.1471 50.6523 16.5107C50.7191 15.8477 50.6188 15.396 50.3525 15.1562C50.2359 15.1054 50.1276 15.0754 50.0273 15.0664L49.832 15.0625ZM15.0332 7.0752C14.8813 7.08364 14.5671 7.37943 14.0908 7.96191C13.6393 8.54367 13.1337 9.30645 12.5742 10.249C12.0149 11.1914 11.4964 12.1949 11.0195 13.2598C10.7917 13.7537 10.574 14.1965 10.3662 14.5879C10.1585 14.979 9.9917 15.1787 9.86523 15.1855C9.81722 15.239 9.67684 15.474 9.44531 15.8916C9.23753 16.283 9.0076 16.7393 8.75586 17.2598C8.50277 17.755 8.29846 18.21 8.14258 18.624C7.98539 19.0128 7.94588 19.2307 8.02441 19.2773C8.02441 19.2773 8.15006 19.2455 8.40039 19.1816C8.67598 19.1165 8.98938 19.0486 9.34082 18.9795C9.71626 18.8837 10.0558 18.8284 10.3594 18.8125C11.4087 18.5038 12.1717 18.2984 12.6484 18.1973C13.1236 18.0709 13.4498 18.0035 13.627 17.9941C13.8292 17.9835 14.0084 18.0122 14.1641 18.0801C14.2719 18.2013 14.3652 18.2726 14.4424 18.2939C14.5446 18.3139 14.5957 18.3242 14.5957 18.3242C14.6183 18.2723 14.6413 17.9791 14.6641 17.4453C14.6868 16.9114 14.7152 16.2501 14.75 15.4619C14.8101 14.6724 14.8565 13.8583 14.8887 13.0195C14.9448 12.1541 14.9797 11.3653 14.9932 10.6543C15.0053 9.91811 15.0141 9.35928 15.0195 8.97852C15.0196 8.49666 15.0219 8.06528 15.0273 7.68457C15.0314 7.27853 15.0332 7.0752 15.0332 7.0752ZM24.9873 8.98926C25.2802 8.771 25.5703 8.73006 25.8564 8.86719C26.1667 8.97777 26.4592 9.22957 26.7334 9.62109C26.9861 10.0896 27.0703 10.4911 26.9863 10.8252C26.901 11.1341 26.6449 11.5788 26.2188 12.1592C25.8659 12.6849 25.5264 12.982 25.2002 13.0498C24.8994 13.1162 24.5648 13.0193 24.1963 12.7598C24.0632 12.6399 23.9393 12.4685 23.8262 12.2461C23.7118 11.9986 23.6365 11.7742 23.6006 11.5732C23.5634 11.347 23.5833 11.2315 23.6592 11.2275C23.8601 11.1915 24.0888 10.964 24.3457 10.5449C24.6027 10.1257 24.6982 9.76571 24.6318 9.46484C24.6265 9.36365 24.6605 9.27226 24.7324 9.19238C24.8029 9.08763 24.8877 9.01985 24.9873 8.98926ZM88.8789 5.7168C89.0812 5.7062 89.2335 5.71147 89.3359 5.73145C89.4624 5.72482 89.6174 5.76746 89.7998 5.85938C90.1112 6.477 90.4794 6.97788 90.9053 7.36133C91.3564 7.74344 91.5898 8.07334 91.6045 8.35156C91.6337 8.90794 91.601 9.2647 91.5078 9.42188C91.4133 9.55366 91.0376 9.6374 90.3799 9.67188C90.0763 9.68779 89.7411 9.59096 89.375 9.38184C89.0329 9.14611 88.7266 8.85746 88.4551 8.5166C88.2075 8.1491 88.0736 7.77591 88.0537 7.39648C88.0471 7.27007 88.1132 7.08895 88.2529 6.85352C88.3928 6.61794 88.533 6.38206 88.6729 6.14648C88.8127 5.91084 88.8816 5.7674 88.8789 5.7168Z" fill="white"/>
</g>
<defs>
<clipPath id="clip0_2094_243">
<rect width="113.569" height="34.6008" fill="white"/>
</clipPath>
</defs>
</svg>
